<?xml version="1.0" encoding="UTF-8"?>
<!DOCTYPE svg PUBLIC "-//W3C//DTD SVG 1.1//EN" "http://www.w3.org/Graphics/SVG/1.1/DTD/svg11.dtd">
<!-- Creator: CorelDRAW 2019 (64-Bit) -->
<svg xmlns="http://www.w3.org/2000/svg" xml:space="preserve" width="79.9995mm" height="28.1296mm" version="1.1" style="shape-rendering:geometricPrecision; text-rendering:geometricPrecision; image-rendering:optimizeQuality; fill-rule:evenodd; clip-rule:evenodd"
viewBox="0 0 32920.72 11575.66"
 xmlns:xlink="http://www.w3.org/1999/xlink">
 <defs>
  <style type="text/css">
   <![CDATA[
    .fil10 {fill:url(#id0);fill-rule:nonzero}
    .fil16 {fill:url(#id1);fill-rule:nonzero}
    .fil8 {fill:url(#id2);fill-rule:nonzero}
    .fil5 {fill:url(#id3);fill-rule:nonzero}
    .fil6 {fill:url(#id4);fill-rule:nonzero}
    .fil2 {fill:url(#id5);fill-rule:nonzero}
    .fil14 {fill:url(#id6);fill-rule:nonzero}
    .fil1 {fill:url(#id7);fill-rule:nonzero}
    .fil11 {fill:url(#id8);fill-rule:nonzero}
    .fil7 {fill:url(#id9);fill-rule:nonzero}
    .fil4 {fill:url(#id10);fill-rule:nonzero}
    .fil3 {fill:url(#id11);fill-rule:nonzero}
    .fil15 {fill:url(#id12);fill-rule:nonzero}
    .fil12 {fill:url(#id13);fill-rule:nonzero}
    .fil0 {fill:url(#id14);fill-rule:nonzero}
    .fil9 {fill:url(#id15);fill-rule:nonzero}
    .fil17 {fill:url(#id16);fill-rule:nonzero}
    .fil13 {fill:url(#id17);fill-rule:nonzero}
   ]]>
  </style>
  <linearGradient id="id0" gradientUnits="userSpaceOnUse" x1="11954.04" y1="4084.62" x2="14553.77" y2="4084.62">
   <stop offset="0" style="stop-opacity:1; stop-color:#2176CC"/>
   <stop offset="1" style="stop-opacity:1; stop-color:#074780"/>
  </linearGradient>
  <linearGradient id="id1" gradientUnits="userSpaceOnUse" xlink:href="#id0" x1="24524.98" y1="4271.24" x2="32833.48" y2="4271.24">
  </linearGradient>
  <linearGradient id="id2" gradientUnits="userSpaceOnUse" xlink:href="#id0" x1="7153.88" y1="8619.48" x2="15590.65" y2="8619.48">
  </linearGradient>
  <linearGradient id="id3" gradientUnits="userSpaceOnUse" xlink:href="#id0" x1="-0" y1="7949.33" x2="2981.24" y2="7949.33">
  </linearGradient>
  <linearGradient id="id4" gradientUnits="userSpaceOnUse" xlink:href="#id0" x1="0.7" y1="3627.31" x2="3881.91" y2="3627.31">
  </linearGradient>
  <linearGradient id="id5" gradientUnits="userSpaceOnUse" xlink:href="#id0" x1="-0" y1="607.97" x2="2981.24" y2="607.97">
  </linearGradient>
  <linearGradient id="id6" gradientUnits="userSpaceOnUse" xlink:href="#id0" x1="16000.39" y1="4261.45" x2="23736.89" y2="4261.45">
  </linearGradient>
  <linearGradient id="id7" gradientUnits="userSpaceOnUse" xlink:href="#id0" x1="3220.53" y1="4279.68" x2="8026.29" y2="4279.68">
  </linearGradient>
  <linearGradient id="id8" gradientUnits="userSpaceOnUse" x1="9972.65" y1="6500.81" x2="9972.65" y2="1682.75">
   <stop offset="0" style="stop-opacity:1; stop-color:#262D6E"/>
   <stop offset="1" style="stop-opacity:1; stop-color:#1A91B5"/>
  </linearGradient>
  <linearGradient id="id9" gradientUnits="userSpaceOnUse" xlink:href="#id8" x1="3364.85" y1="5723.88" x2="-261.35" y2="5723.88">
  </linearGradient>
  <linearGradient id="id10" gradientUnits="userSpaceOnUse" xlink:href="#id8" x1="3543.24" y1="6875.66" x2="811.09" y2="6875.66">
  </linearGradient>
  <linearGradient id="id11" gradientUnits="userSpaceOnUse" xlink:href="#id8" x1="3543.24" y1="1605.8" x2="811.09" y2="1605.8">
  </linearGradient>
  <linearGradient id="id12" gradientUnits="userSpaceOnUse" xlink:href="#id8" x1="28104.27" y1="7238" x2="28104.27" y2="1278.44">
  </linearGradient>
  <linearGradient id="id13" gradientUnits="userSpaceOnUse" xlink:href="#id8" x1="11443.48" y1="4948.18" x2="11443.48" y2="1648.39">
  </linearGradient>
  <linearGradient id="id14" gradientUnits="userSpaceOnUse" xlink:href="#id8" x1="5275.95" y1="6927.67" x2="5275.95" y2="1595.18">
  </linearGradient>
  <linearGradient id="id15" gradientUnits="userSpaceOnUse" xlink:href="#id8" x1="10317.09" y1="9051.69" x2="7910.45" y2="9051.69">
  </linearGradient>
  <linearGradient id="id16" gradientUnits="objectBoundingBox" xlink:href="#id0" x1="0.895774%" y1="42.3838%" x2="90.2531%" y2="42.3838%">
  </linearGradient>
  <linearGradient id="id17" gradientUnits="userSpaceOnUse" xlink:href="#id8" x1="19355.16" y1="7110.02" x2="19355.16" y2="1386.79">
  </linearGradient>
 </defs>
 <g id="Capa_x0020_1">
  <metadata id="CorelCorpID_0Corel-Layer"/>
  <g id="_1688560386640">
   <path class="fil0" d="M4321.98 1835.59c-102.1,-1.98 -183.25,-86.42 -181.23,-188.51 1.98,-102.1 86.42,-183.25 188.51,-181.23 1232.64,24.4 2046.53,767.14 2409.11,1704.65 141.89,366.82 213.99,763.97 214.11,1159.06 0.16,396.57 -71.73,791.09 -217.61,1150.96 -359.33,886.52 -1159.64,1568.64 -2428.91,1577.78 -102.1,0.37 -185.22,-82.06 -185.63,-184.15 -0.41,-102.1 82.06,-185.22 184.15,-185.63 1092.77,-7.82 1779.87,-590.31 2086.65,-1347.21 128.43,-316.78 191.68,-663.56 191.6,-1011.74 -0.12,-349.62 -63.95,-701.05 -189.46,-1025.65 -312.34,-807.55 -1012.28,-1447.33 -2071.3,-1468.31z"/>
   <path class="fil1" d="M3411.92 791.54c-101.68,9.14 -191.68,-65.84 -200.86,-167.53 -9.14,-101.68 65.84,-191.68 167.53,-200.86 2108.09,-194.11 3511.39,698.13 4201.12,1938.1 332.58,597.89 497.68,1276.67 494.55,1953.03 -3.13,676.61 -174.73,1351.9 -515.25,1942.62 -700.02,1214.37 -2106.2,2070.56 -4220.3,1848.02 -101.68,-10.37 -175.72,-101.36 -165.3,-203.04 10.37,-101.68 101.36,-175.72 203.04,-165.3 1945.26,204.73 3229.83,-566.98 3862.08,-1663.82 307.93,-534.18 463.12,-1146.02 465.95,-1759.95 2.88,-614.14 -146.75,-1229.93 -448.14,-1771.72 -624.06,-1121.86 -1906.29,-1928.06 -3844.42,-1749.54z"/>
   <path class="fil2" d="M546.65 61.4c150.86,0 287.56,61.15 386.49,160.12l0 0.7c56.99,57.04 101.52,126.54 128.93,203.99l1734.93 9.38c102.1,0.37 184.56,83.5 184.15,185.59 -0.41,102.1 -83.54,184.56 -185.63,184.15l-1735.63 -9.34c-27.61,74.98 -71.27,142.34 -126.75,197.81l-0.7 0.74c-98.93,98.85 -235.43,160.12 -385.79,160.12 -150.45,0 -286.86,-61.27 -385.83,-160.12l-0.7 0c-98.93,-98.97 -160.12,-235.63 -160.12,-386.53 0,-150.86 61.19,-287.56 160.12,-386.49 98.93,-98.97 235.63,-160.12 386.53,-160.12zm124.36 422.21l-0.33 0.37c-31.73,-31.69 -75.59,-51.36 -124.03,-51.36 -48.48,0 -92.34,19.67 -124.07,51.36 -31.69,31.69 -51.32,75.59 -51.32,124.03 0,48.43 19.63,92.34 51.32,124.03l-0.37 0.33c31.69,31.48 75.72,51.03 124.44,51.03 48.56,0 92.34,-19.38 124.03,-50.66l0.7 -0.7c31.27,-31.65 50.62,-75.47 50.62,-124.03 0,-48.72 -19.51,-92.71 -50.99,-124.4z"/>
   <path class="fil3" d="M1187.87 1790.61c-102.1,-2.8 -182.59,-87.9 -179.79,-189.99 2.76,-102.1 87.86,-182.55 189.95,-179.79l6.67 0.21c102.1,2.76 182.59,87.86 179.83,189.95 -2.8,102.1 -87.9,182.59 -189.99,179.79l-6.67 -0.16zm615.66 -4.98c-102.1,-0.41 -184.52,-83.54 -184.11,-185.63 0.41,-102.1 83.54,-184.56 185.63,-184.15l1884.19 10.21c102.1,0.37 184.56,83.5 184.15,185.59 -0.41,102.1 -83.54,184.56 -185.63,184.15l-1884.23 -10.16z"/>
   <path class="fil4" d="M1198.03 7060.67c-102.1,2.8 -187.2,-77.69 -189.95,-179.79 -2.8,-102.1 77.69,-187.2 179.79,-189.95l6.67 -0.21c102.1,-2.8 187.2,77.69 189.99,179.79 2.76,102.1 -77.73,187.2 -179.83,189.99l-6.67 0.16zm607.02 4.98c-102.1,0.41 -185.22,-82.06 -185.63,-184.15 -0.41,-102.1 82.01,-185.22 184.11,-185.63l1884.23 -10.16c102.1,-0.41 185.22,82.06 185.63,184.15 0.41,102.1 -82.06,185.22 -184.15,185.63l-1884.19 10.16z"/>
   <path class="fil5" d="M546.65 7402.76c150.86,0 287.56,61.15 386.49,160.12l0 0.7c57.28,57.32 101.93,127.24 129.38,205.18l1733 -9.34c102.1,-0.41 185.22,82.06 185.63,184.15 0.41,102.1 -82.06,185.22 -184.15,185.59l-1737.61 9.42c-27.61,74.44 -71.07,141.4 -126.25,196.62l-0.7 0.7c-98.93,98.85 -235.43,160.12 -385.79,160.12 -150.45,0 -286.86,-61.27 -385.83,-160.12l-0.7 0c-98.93,-98.97 -160.12,-235.63 -160.12,-386.53 0,-150.86 61.19,-287.56 160.12,-386.49 98.93,-98.97 235.63,-160.12 386.53,-160.12zm124.36 422.21l-0.33 0.37c-31.73,-31.69 -75.59,-51.36 -124.03,-51.36 -48.48,0 -92.34,19.67 -124.07,51.36 -31.69,31.73 -51.32,75.59 -51.32,124.03 0,48.48 19.63,92.34 51.32,124.03l-0.37 0.37c31.69,31.48 75.72,50.99 124.44,50.99 48.56,0 92.34,-19.38 124.03,-50.62l0.7 -0.74c31.27,-31.65 50.62,-75.47 50.62,-124.03 0,-48.68 -19.51,-92.71 -50.99,-124.4z"/>
   <path class="fil6" d="M182.01 4691.77c-102.1,-2.02 -183.29,-86.46 -181.27,-188.55 2.02,-102.05 86.42,-183.25 188.51,-181.23l8.07 0.21c102.1,1.98 183.25,86.42 181.27,188.51 -2.02,102.1 -86.46,183.25 -188.55,181.23l-8.02 -0.16zm1249.93 -2133.98c150.86,0 287.56,61.19 386.49,160.12l0 0.7c55.18,55.22 98.64,122.14 126.25,196.58l1744.56 9.42c102.1,0.41 184.56,83.54 184.15,185.63l-0.08 4.98c0.99,7.45 1.44,15.02 1.48,22.67l7.04 1361.53c0.16,42.8 -14.2,82.22 -38.48,113.62 -33,50.53 -90.04,83.91 -154.85,83.91l-2868.03 -10.16c-102.1,0 -184.89,-82.8 -184.89,-184.89 0,-102.1 82.8,-184.89 184.89,-184.89l2690.71 9.55 -5.35 -1033.1 -1558.02 -8.44c-27.41,77.94 -72.1,147.9 -129.38,205.22l-0.7 0.7c-98.93,98.89 -235.43,160.12 -385.79,160.12 -150.45,0 -286.86,-61.23 -385.83,-160.12l-0.7 0c-98.93,-98.93 -160.12,-235.63 -160.12,-386.49 0,-150.9 61.19,-287.61 160.12,-386.53 98.97,-98.93 235.63,-160.12 386.53,-160.12zm124.36 422.21l-0.33 0.37c-31.73,-31.69 -75.59,-51.32 -124.03,-51.32 -48.48,0 -92.34,19.63 -124.03,51.32 -31.73,31.73 -51.36,75.59 -51.36,124.07 0,48.43 19.63,92.3 51.36,124.03l-0.37 0.33c31.65,31.48 75.68,50.99 124.4,50.99 48.56,0 92.34,-19.34 124.03,-50.62l0.7 -0.7c31.27,-31.69 50.66,-75.47 50.66,-124.03 0,-48.72 -19.55,-92.75 -51.03,-124.44z"/>
   <path class="fil7" d="M546.65 5177.35c150.86,0 287.56,61.19 386.49,160.12l0 0.7c57.36,57.41 102.01,127.4 129.46,205.47l2555.57 -9.63c102.1,0 184.85,82.8 184.85,184.89 0,102.1 -82.75,184.89 -184.85,184.89l-2558.82 9.59c-27.69,74.4 -71.07,141.23 -126.21,196.41l-0.7 0.7c-98.93,98.89 -235.43,160.12 -385.79,160.12 -150.45,0 -286.86,-61.23 -385.83,-160.12l-0.7 0c-98.93,-98.93 -160.12,-235.63 -160.12,-386.49 0,-150.9 61.19,-287.61 160.12,-386.53 98.93,-98.93 235.63,-160.12 386.53,-160.12zm124.36 422.21l-0.33 0.37c-31.73,-31.69 -75.59,-51.32 -124.03,-51.32 -48.48,0 -92.34,19.63 -124.07,51.32 -31.69,31.73 -51.32,75.59 -51.32,124.07 0,48.43 19.63,92.3 51.32,124.03l-0.37 0.33c31.69,31.48 75.72,50.99 124.44,50.99 48.56,0 92.34,-19.38 124.03,-50.62l0.7 -0.7c31.27,-31.69 50.62,-75.47 50.62,-124.03 0,-48.72 -19.51,-92.75 -50.99,-124.44z"/>
   <path class="fil8" d="M13037.8 7819.58c-53.62,-86.87 -26.67,-200.82 60.2,-254.48 86.87,-53.66 200.82,-26.71 254.48,60.16 81.97,132.79 191.15,244.03 318.26,327.48 126.58,83.17 271.72,139.09 426.2,161.6 288.35,42.1 566.45,-36.67 782.82,-197.98l9.46 -6.63c211.39,-160.98 362.42,-401.88 403.86,-685.78 42.06,-288.31 -36.67,-566.45 -197.98,-782.82l-6.63 -9.51c-160.98,-211.39 -401.88,-362.38 -685.78,-403.82 -183.9,-26.79 -367.69,-4.61 -534.39,60.08 -166.21,64.48 -316.66,171.85 -434.19,315.46 -64.85,79.26 -181.76,90.99 -261.02,26.09 -79.26,-64.85 -90.94,-181.76 -26.09,-261.02 157.98,-193.04 361.64,-337.89 587.84,-425.67 225.8,-87.57 473.4,-117.77 720.02,-81.81 384.64,56.05 710.93,261.02 929.11,547.89l8.44 10.41c217.9,292.34 324.27,667.8 267.56,1056.89 -56.09,384.64 -261.1,710.93 -547.97,929.11l-10.41 8.44c-292.3,217.9 -667.76,324.27 -1056.84,267.56 -208.06,-30.37 -404.6,-106.33 -577.06,-219.62 -171.89,-112.92 -319.37,-263 -429.91,-442.05zm1545.84 -1208.69c119.21,92.38 189.79,224.48 207.32,363.24 17.57,138.68 -17.65,284.03 -109.75,402.87 -92.3,119.13 -224.44,189.75 -363.16,207.28 -138.68,17.57 -283.98,-17.57 -402.91,-109.71 -85.76,-66.46 -146.37,-153.53 -180.16,-248.8 -4.57,0.33 -9.22,0.53 -13.87,0.53l-4815.43 -15.14 -1322.97 2402.82c-235.84,428.38 -149.71,821.5 96.38,1105.98 115.26,133.21 264.52,244.48 432.5,326.66 169.01,82.71 357.44,135.88 549.57,152.38 479.53,41.15 978.9,-153.53 1245.03,-699.28l1401.73 -2874.78c44.85,-92.06 155.92,-130.37 247.98,-85.51 92.1,44.81 130.41,155.92 85.55,247.98l-1401.73 2874.78c-344.85,707.26 -990.01,959.73 -1608.97,906.56 -236.66,-20.29 -470.28,-86.58 -681.63,-190.04 -212.38,-103.91 -402.17,-245.71 -549.94,-416.53 -342.58,-396.04 -464.6,-939.4 -141.31,-1526.54l1375.89 -2498.86c35.97,-65.55 105.8,-100.7 175.8,-95.68l4911.56 15.43c4.94,0 9.79,0.25 14.61,0.62 18.89,-52.3 46.09,-102.47 81.85,-148.68 92.34,-119.17 224.44,-189.75 363.2,-207.28 138.68,-17.57 283.94,17.57 402.87,109.71zm-159.54 409.66c-5.64,-44.53 -28.35,-87.03 -66.71,-116.75 -38.64,-29.96 -85.64,-41.4 -130.24,-35.76 -44.48,5.64 -86.99,28.35 -116.62,66.66 -29.96,38.64 -41.48,85.64 -35.84,130.2 5.64,44.53 28.35,87.03 66.71,116.7 38.64,29.96 85.68,41.44 130.24,35.8 44.48,-5.6 86.99,-28.35 116.66,-66.66 29.92,-38.6 41.44,-85.64 35.8,-130.2z"/>
   <path class="fil9" d="M8265.21 10672.68c-102.1,-2.02 -183.25,-86.42 -181.23,-188.51 1.98,-102.1 86.42,-183.25 188.51,-181.27 230.24,4.65 422.95,-60.49 584.47,-183.16 169.75,-128.97 310.61,-323.49 428.47,-569.41l970.51 -2014.51c44.44,-92.06 155.18,-130.7 247.24,-86.29 92.1,44.44 130.74,155.22 86.29,247.28l-970.51 2013.73c-142.84,297.19 -319.37,537.02 -538.67,703.6 -227.81,173 -496.61,264.93 -815.08,258.55z"/>
   <path class="fil10" d="M12278.97 6485.96c-44.85,91.68 -155.59,129.67 -247.28,84.81 -91.73,-44.85 -129.71,-155.59 -84.85,-247.28l2281.91 -4654.85c44.85,-91.68 155.59,-129.67 247.28,-84.81 91.73,44.85 129.71,155.59 84.85,247.28l-2281.91 4654.85z"/>
   <path class="fil11" d="M11189.16 6517.4c-46.46,91.27 -158.14,127.61 -249.46,81.19 -91.27,-46.46 -127.61,-158.14 -81.19,-249.46l228.92 -449.16 -2133.4 -4062.57c-47.65,-90.49 -12.88,-202.55 77.57,-250.16 90.49,-47.65 202.55,-12.88 250.16,77.57l2173.4 4138.74c31.69,52.92 36.3,120.49 6.25,179.58l-272.26 534.27z"/>
   <path class="fil12" d="M12000.54 4914.97c-15.97,38.27 -44.73,71.4 -84.15,92.34 -90.49,48.06 -202.88,13.62 -250.9,-76.83l-1642.47 -3088.15c-48.06,-90.45 -13.62,-202.83 76.83,-250.86 90.49,-48.06 202.88,-13.66 250.9,76.83l1472.43 2768.44 1361.36 -2765.19c45.23,-91.73 156.29,-129.38 247.98,-84.15 91.73,45.23 129.34,156.29 84.15,248.02l-1516.13 3079.55z"/>
   <path class="fil13" d="M22317.14 5631.17c53.62,-86.87 167.61,-113.82 254.48,-60.16 86.87,53.62 113.82,167.61 60.2,254.48 -232.96,377.15 -543.52,693.31 -905.57,931.13 -362.54,238.18 -776.19,397.89 -1214.7,461.84 -819.28,119.5 -1609.83,-104.52 -2225.45,-563.4 -616.07,-459.21 -1057.01,-1153.38 -1176.68,-1973.57 -119.5,-819.32 104.57,-1609.83 563.44,-2225.45 459.16,-616.03 1153.38,-1057.05 1973.57,-1176.68 520.27,-75.88 1042.11,-12.39 1517.37,171.97 475.79,184.56 904.3,489.74 1237.46,896.85 64.85,79.26 53.17,196.17 -26.09,261.02 -79.26,64.85 -196.17,53.17 -261.02,-26.13 -292.71,-357.64 -667.97,-625.37 -1083.76,-786.65 -416.24,-161.44 -874.22,-216.91 -1331.77,-150.2 -718.5,104.81 -1326.47,490.93 -1728.43,1030.26 -402.38,539.82 -598.79,1233.46 -493.9,1952.79 104.81,718.5 490.93,1326.51 1030.26,1728.47 539.82,402.38 1233.51,598.79 1952.79,493.86 384.97,-56.13 747.22,-195.8 1063.92,-403.86 317.23,-208.39 589.49,-485.58 793.89,-816.56z"/>
   <path class="fil14" d="M23471.96 6286.74c53.62,-86.87 167.61,-113.82 254.48,-60.2 86.87,53.66 113.82,167.65 60.16,254.52 -329.79,534.1 -769.53,981.7 -1282.06,1318.44 -512.99,337.03 -1098.57,563.03 -1719.62,653.65 -1160.26,169.25 -2279.61,-147.94 -3151.31,-797.67 -872.16,-650.06 -1496.34,-1632.8 -1665.76,-2793.96 -169.25,-1160.26 147.98,-2279.61 797.72,-3151.31 650.02,-872.12 1632.75,-1496.34 2793.92,-1665.72 737.02,-107.53 1475.89,-17.61 2148.75,243.37 673.36,261.19 1279.97,693.31 1751.85,1269.84 64.85,79.3 53.17,196.21 -26.09,261.06 -79.26,64.85 -196.17,53.17 -261.02,-26.13 -431.47,-527.15 -984.83,-921.79 -1598.15,-1159.68 -613.85,-238.06 -1288.85,-319.91 -1963.16,-221.6 -1059.4,154.56 -1955.96,723.89 -2548.78,1519.3 -593.24,795.86 -882.82,1818.39 -728.17,2878.69 154.6,1059.44 723.93,1955.96 1519.34,2548.82 795.86,593.24 1818.39,882.77 2878.65,728.13 567.52,-82.75 1101.66,-288.76 1568.85,-595.66 467.68,-307.32 869.15,-715.99 1170.42,-1203.88z"/>
   <path class="fil15" d="M30593.13 1788.51c682.16,528.59 1085.57,1283.83 1186.14,2077.35 100.57,793.44 -101.31,1625.22 -629.7,2307.1 -528.59,682.08 -1283.83,1085.49 -2077.35,1186.1 -793.44,100.61 -1625.22,-101.36 -2307.06,-629.74 -682.16,-528.59 -1085.57,-1283.79 -1186.18,-2077.35 -100.61,-793.44 101.36,-1625.22 629.74,-2307.06 528.59,-682.08 1283.83,-1085.49 2077.35,-1186.1 793.44,-100.61 1625.22,101.36 2307.06,629.7zm819.24 2123.77c-88.64,-699.28 -444.19,-1364.9 -1045.49,-1830.86 -601.59,-466.16 -1335.07,-644.43 -2034.43,-555.75 -699.28,88.64 -1364.86,444.19 -1830.82,1045.49 -466.2,601.63 -644.47,1335.07 -555.79,2034.43 88.68,699.32 444.27,1364.9 1045.53,1830.82 601.63,466.2 1335.07,644.47 2034.43,555.79 699.32,-88.68 1364.9,-444.23 1830.86,-1045.49 466.16,-601.63 644.43,-1335.07 555.71,-2034.43z"/>
   <path class="fil16" d="M31274.47 909.28c924.91,716.73 1471.85,1740.69 1608.27,2816.67 136.42,1075.86 -137.4,2203.69 -853.93,3128.31 -716.73,924.95 -1740.74,1471.85 -2816.67,1608.27 -1075.86,136.42 -2203.73,-137.44 -3128.31,-853.97 -924.95,-716.73 -1471.85,-1740.74 -1608.27,-2816.63 -136.42,-1075.86 137.44,-2203.73 853.97,-3128.35 716.69,-924.87 1740.69,-1471.85 2816.59,-1608.23 1075.81,-136.42 2203.69,137.4 3128.35,853.93zm1241.41 2863.09c-124.48,-981.74 -623.56,-1916.04 -1467.66,-2570.18 -844.42,-654.3 -1873.94,-904.46 -2855.73,-779.98 -981.66,124.44 -1916.04,623.6 -2570.05,1467.61 -654.34,844.38 -904.54,1873.9 -780.02,2855.68 124.44,981.7 623.56,1916.08 1467.66,2570.14 844.38,654.34 1873.9,904.54 2855.68,780.02 981.7,-124.44 1916.04,-623.56 2570.14,-1467.66 654.3,-844.38 904.46,-1873.9 779.98,-2855.64z"/>
   <path class="fil17" d="M15925.66 11391.59l0 -362.54c87.32,100.04 170.45,171.89 249.79,216 79.38,43.7 163.91,65.76 253.57,65.76 95.31,0 170.45,-22.06 225.38,-66.66 54.94,-44.61 82.67,-104.73 82.67,-180.82 0,-62.43 -18.31,-117.36 -55.43,-164.32 -37.08,-47.45 -125.84,-115.51 -265.75,-204.27 -217.9,-140.41 -354.06,-249.33 -409.95,-326.37 -55.43,-76.99 -83.13,-169.05 -83.13,-275.14 0,-149.79 53.08,-272.38 158.72,-368.63 106.13,-95.8 242.75,-143.7 409.45,-143.7 74.2,0 147.44,10.82 219.79,32.43 71.81,21.6 144.61,54.94 217.85,100l0 312.75c-84.52,-68.11 -162.01,-117.4 -233.82,-148.39 -71.4,-30.53 -142.75,-46.01 -214.15,-46.01 -86.38,0 -156.83,21.11 -211.31,63.87 -54.44,42.71 -81.69,97.65 -81.69,164.81 0,95.31 113.17,213.66 339.04,354.97l41.32 24.9c184.52,114.56 305.67,215.55 362.5,302.87 56.83,87.82 85.47,196.29 85.47,325.42 0,146.5 -53.08,267.65 -159.67,363.45 -106.58,95.8 -242.75,143.7 -409,143.7 -103.78,0 -197.2,-14.57 -280.82,-44.16 -83.58,-29.14 -163.86,-75.59 -240.86,-139.91z"/>
   <path id="1" class="fil17" d="M17768.04 10581.57c0,98.15 18.31,192.05 54.94,280.82 36.62,88.72 89.71,167.61 158.27,236.66 67.12,68.56 145.55,121.6 236.17,158.68 90.16,37.12 184.56,55.88 282.71,55.88 100.49,0 195.3,-18.31 284.07,-54.44 88.27,-36.17 167.65,-89.71 237.15,-160.12 68.56,-69.05 121.6,-147.94 158.68,-236.66 37.12,-88.76 55.88,-182.67 55.88,-280.82 0,-98.15 -18.31,-190.65 -54.94,-278.47 -36.62,-87.32 -91.07,-167.61 -162.46,-239.95 -68.56,-70.9 -147.44,-124.44 -236.66,-161.52 -88.76,-37.08 -182.67,-55.88 -281.72,-55.88 -95.8,0 -187.86,18.81 -277.52,56.34 -89.22,37.57 -170,91.11 -241.35,161.07 -68.56,66.71 -121.64,145.1 -158.27,235.26 -36.62,89.71 -54.94,184.07 -54.94,283.16zm-293 -10.33c0,-128.19 26.3,-253.12 78.39,-373.78 52.14,-121.15 126.79,-228.22 223.04,-320.73 98.15,-94.36 208.97,-166.21 332.95,-216 123.49,-49.3 254.03,-74.2 390.69,-74.2 138.97,0 271.39,24.9 396.78,75.14 124.89,49.79 235.26,121.6 330.57,215.06 100,97.2 175.14,205.67 225.88,324.48 50.25,119.26 75.59,248.88 75.59,388.34 0,130.98 -25.84,256.87 -77.94,377.52 -51.69,120.7 -125.39,226.83 -220.73,318.39 -100,95.31 -211.27,167.61 -334.76,216.46 -123.54,49.3 -255.47,73.74 -395.38,73.74 -136.66,0 -267.69,-25.39 -393.03,-75.64 -124.93,-50.7 -235.26,-122.05 -330.61,-214.56 -99.05,-96.29 -174.19,-205.22 -224.89,-325.88 -51.19,-121.15 -76.54,-250.78 -76.54,-388.34z"/>
   <polygon id="2" class="fil17" points="20100.2,11541.83 20100.2,9617.52 20373.49,9617.52 20373.49,11293.89 21289.18,11293.89 21289.18,11541.83 "/>
   <path id="3" class="fil17" d="M21709.71 9617.52l273.28 0 0 1104.46c0,123 6.58,210.36 19.71,261.56 13.62,51.15 35.72,95.76 67.16,133.33 56.83,67.16 123.99,116.91 201.93,150.28 77.94,32.84 166.7,49.3 265.75,49.3 166.7,0 301.02,-43.21 402.91,-129.13 101.89,-86.42 152.59,-200.04 152.59,-341.39l0 -1228.4 273.33 0 0 1236.88c0,214.11 -76.54,387.85 -229.62,521.22 -153.08,133.33 -352.67,200.04 -599.2,200.04 -146,0 -277.48,-25.84 -394.89,-77.49 -117.4,-52.14 -216,-127.73 -296.78,-227.73 -49.75,-59.67 -84.52,-125.88 -105.18,-199.13 -20.66,-73.25 -30.99,-185.92 -30.99,-338.06l0 -1115.73z"/>
   <polygon id="4" class="fil17" points="24546.67,11541.83 24546.67,9868.29 23839.48,9868.29 23839.48,9617.52 25527.13,9617.52 25527.13,9868.29 24819.95,9868.29 24819.95,11541.83 "/>
   <polygon id="5" class="fil17" points="26016.71,11541.83 26016.71,9617.52 26292.83,9617.52 26292.83,11541.83 "/>
   <path id="6" class="fil17" d="M27157.58 10581.57c0,98.15 18.31,192.05 54.94,280.82 36.62,88.72 89.71,167.61 158.27,236.66 67.12,68.56 145.55,121.6 236.17,158.68 90.16,37.12 184.56,55.88 282.71,55.88 100.49,0 195.3,-18.31 284.07,-54.44 88.27,-36.17 167.65,-89.71 237.15,-160.12 68.56,-69.05 121.6,-147.94 158.68,-236.66 37.12,-88.76 55.88,-182.67 55.88,-280.82 0,-98.15 -18.31,-190.65 -54.94,-278.47 -36.62,-87.32 -91.07,-167.61 -162.46,-239.95 -68.56,-70.9 -147.44,-124.44 -236.66,-161.52 -88.76,-37.08 -182.67,-55.88 -281.72,-55.88 -95.8,0 -187.86,18.81 -277.52,56.34 -89.22,37.57 -170,91.11 -241.35,161.07 -68.56,66.71 -121.64,145.1 -158.27,235.26 -36.62,89.71 -54.94,184.07 -54.94,283.16zm-293 -10.33c0,-128.19 26.3,-253.12 78.39,-373.78 52.14,-121.15 126.79,-228.22 223.04,-320.73 98.15,-94.36 208.97,-166.21 332.95,-216 123.49,-49.3 254.03,-74.2 390.69,-74.2 138.97,0 271.39,24.9 396.78,75.14 124.89,49.79 235.26,121.6 330.57,215.06 100,97.2 175.14,205.67 225.88,324.48 50.25,119.26 75.59,248.88 75.59,388.34 0,130.98 -25.84,256.87 -77.94,377.52 -51.69,120.7 -125.39,226.83 -220.73,318.39 -100,95.31 -211.27,167.61 -334.76,216.46 -123.54,49.3 -255.47,73.74 -395.38,73.74 -136.66,0 -267.69,-25.39 -393.03,-75.64 -124.93,-50.7 -235.26,-122.05 -330.61,-214.56 -99.05,-96.29 -174.19,-205.22 -224.89,-325.88 -51.19,-121.15 -76.54,-250.78 -76.54,-388.34z"/>
   <polygon id="7" class="fil17" points="29481.31,11541.83 29481.31,9617.52 29720.77,9617.52 30988.63,11111.22 30988.63,9617.52 31261.92,9617.52 31261.92,11541.83 31017.27,11541.83 29754.59,10046.73 29754.59,11541.83 "/>
   <path id="8" class="fil17" d="M31830.38 11391.59l0 -362.54c87.32,100.04 170.45,171.89 249.79,216 79.38,43.7 163.91,65.76 253.57,65.76 95.31,0 170.45,-22.06 225.38,-66.66 54.94,-44.61 82.67,-104.73 82.67,-180.82 0,-62.43 -18.31,-117.36 -55.43,-164.32 -37.08,-47.45 -125.84,-115.51 -265.75,-204.27 -217.9,-140.41 -354.06,-249.33 -409.95,-326.37 -55.43,-76.99 -83.13,-169.05 -83.13,-275.14 0,-149.79 53.08,-272.38 158.72,-368.63 106.13,-95.8 242.75,-143.7 409.45,-143.7 74.2,0 147.44,10.82 219.79,32.43 71.81,21.6 144.61,54.94 217.85,100l0 312.75c-84.52,-68.11 -162.01,-117.4 -233.82,-148.39 -71.4,-30.53 -142.75,-46.01 -214.15,-46.01 -86.38,0 -156.83,21.11 -211.31,63.87 -54.44,42.71 -81.69,97.65 -81.69,164.81 0,95.31 113.17,213.66 339.04,354.97l41.32 24.9c184.52,114.56 305.67,215.55 362.5,302.87 56.83,87.82 85.47,196.29 85.47,325.42 0,146.5 -53.08,267.65 -159.67,363.45 -106.58,95.8 -242.75,143.7 -409,143.7 -103.78,0 -197.2,-14.57 -280.82,-44.16 -83.58,-29.14 -163.86,-75.59 -240.86,-139.91z"/>
  </g>
 </g>
</svg>
